<svg data-v-423bf9ae="" xmlns="http://www.w3.org/2000/svg" viewBox="0 0 352.54877218041696 164" class="iconAbove"><!----><!----><!----><g data-v-423bf9ae="" id="bdcf37af-16f1-46ff-9c31-13b0c8324c0f" fill="#0C203C" transform="matrix(4.332129955291748,0,0,4.332129955291748,-1.5162338018417358,88.74748992919922)"><path d="M5.10 3.53L5.10 3.53L5.10 3.53Q6.31 3.53 7.22 4.24L7.22 4.24L7.22 4.24Q8.13 4.96 8.13 6.09L8.13 6.09L8.13 6.09Q8.13 6.69 7.80 7.08L7.80 7.08L7.80 7.08Q7.46 7.48 6.97 7.48L6.97 7.48L6.97 7.48Q6.48 7.48 6.19 7.35L6.19 7.35L6.19 7.35Q6.23 7.13 6.23 6.87L6.23 6.87L6.23 6.87Q6.22 5.99 5.80 5.44L5.80 5.44L5.80 5.44Q5.38 4.89 4.57 4.89L4.57 4.89L4.57 4.89Q3.77 4.89 3.08 5.40L3.08 5.40L3.08 5.40Q2.67 5.99 2.45 6.94L2.45 6.94L2.45 6.94Q2.23 7.90 2.23 8.82L2.23 8.82L2.23 8.82Q2.23 10.36 2.82 11.40L2.82 11.40L2.82 11.40Q3.42 12.45 4.68 12.45L4.68 12.45L4.68 12.45Q5.84 12.45 6.24 11.56L6.24 11.56L6.24 11.56Q6.62 10.79 6.62 9.52L6.62 9.52L6.62 9.52Q7.34 9.52 7.81 9.78L7.81 9.78L7.81 9.78Q8.29 10.04 8.29 10.63L8.29 10.63L8.29 10.63Q8.29 12.00 7.08 12.90L7.08 12.90L7.08 12.90Q5.88 13.80 4.37 13.80L4.37 13.80L4.37 13.80Q2.39 13.80 1.37 12.50L1.37 12.50L1.37 12.50Q0.35 11.19 0.35 8.95L0.35 8.95L0.35 8.95Q0.35 6.71 1.63 5.12L1.63 5.12L1.63 5.12Q2.91 3.53 5.10 3.53ZM11.84 13.80L11.84 13.80L11.84 13.80Q10.30 13.80 9.58 12.90L9.58 12.90L9.58 12.90Q8.85 12.00 8.85 10.38L8.85 10.38L8.85 10.38Q8.85 8.76 9.81 7.57L9.81 7.57L9.81 7.57Q10.78 6.38 12.29 6.38L12.29 6.38L12.29 6.38Q15.40 6.38 15.40 9.88L15.40 9.88L15.40 9.88Q15.40 11.52 14.39 12.66L14.39 12.66L14.39 12.66Q13.38 13.80 11.84 13.80ZM10.84 7.92L10.84 7.92L10.84 7.92Q10.58 8.74 10.58 9.55L10.58 9.55L10.58 9.55Q10.58 10.36 10.64 10.81L10.64 10.81L10.64 10.81Q10.70 11.26 10.85 11.70L10.85 11.70L10.85 11.70Q11.17 12.61 12.12 12.61L12.12 12.61L12.12 12.61Q13.06 12.61 13.36 12.11L13.36 12.11L13.36 12.11Q13.66 11.61 13.66 10.56L13.66 10.56L13.66 10.56Q13.66 7.57 12.25 7.57L12.25 7.57L12.25 7.57Q11.44 7.57 10.84 7.92ZM27.20 7.98L27.20 7.98L27.06 10.98L27.06 10.98Q27.06 12.33 27.45 13.55L27.45 13.55L27.45 13.55Q27.06 13.72 26.56 13.72L26.56 13.72L26.56 13.72Q25.37 13.72 25.37 12.39L25.37 12.39L25.37 12.39Q25.37 11.79 25.52 10.37L25.52 10.37L25.52 10.37Q25.68 8.95 25.68 8.58L25.68 8.58L25.68 8.58Q25.68 7.88 25.10 7.88L25.10 7.88L25.10 7.88Q24.47 7.88 23.60 9.17L23.60 9.17L23.60 9.17Q22.72 10.46 22.72 11.19L22.72 11.19L22.72 11.19Q22.79 12.29 23.11 13.38L23.11 13.38L23.11 13.38Q22.58 13.55 22.22 13.55L22.22 13.55L22.22 13.55Q21.03 13.55 21.03 12.22L21.03 12.22L21.03 12.22Q21.03 11.66 21.18 10.35L21.18 10.35L21.18 10.35Q21.34 9.03 21.34 8.69L21.34 8.69L21.34 8.69Q21.34 7.99 20.71 7.99L20.71 7.99L20.71 7.99Q20.27 7.99 19.71 8.64L19.71 8.64L19.71 8.64Q19.15 9.28 18.77 10.06L18.77 10.06L18.77 10.06Q18.38 10.84 18.35 11.30L18.35 11.30L18.35 11.30Q18.42 12.50 18.63 13.47L18.63 13.47L18.63 13.47Q18.19 13.64 17.70 13.64L17.70 13.64L17.70 13.64Q17.22 13.64 16.92 13.41L16.92 13.41L16.92 13.41Q16.62 13.17 16.62 12.76L16.62 12.76L16.62 12.76Q16.62 12.35 16.74 11.28L16.74 11.28L16.74 11.28Q16.87 10.21 16.87 9.15L16.87 9.15L16.87 9.15Q16.87 8.09 16.55 6.72L16.55 6.72L16.55 6.72Q17.00 6.55 17.50 6.55L17.50 6.55L17.50 6.55Q18.00 6.55 18.32 6.85L18.32 6.85L18.32 6.85Q18.63 7.14 18.63 7.63L18.63 7.63L18.63 7.63Q18.63 7.88 18.54 8.86L18.54 8.86L18.54 8.86Q19.05 7.94 19.85 7.26L19.85 7.26L19.85 7.26Q20.65 6.58 21.45 6.58L21.45 6.58L21.45 6.58Q22.86 6.58 22.86 8.09L22.86 8.09L22.86 8.09Q22.86 8.47 22.82 8.93L22.82 8.93L22.82 8.93Q23.34 7.95 24.16 7.21L24.16 7.21L24.16 7.21Q24.98 6.47 25.79 6.47L25.79 6.47L25.79 6.47Q27.20 6.47 27.20 7.98ZM39.58 7.98L39.58 7.98L39.44 10.98L39.44 10.98Q39.44 12.33 39.83 13.55L39.83 13.55L39.83 13.55Q39.44 13.72 38.93 13.72L38.93 13.72L38.93 13.72Q37.74 13.72 37.74 12.39L37.74 12.39L37.74 12.39Q37.74 11.79 37.90 10.37L37.90 10.37L37.90 10.37Q38.05 8.95 38.05 8.58L38.05 8.58L38.05 8.58Q38.05 7.88 37.48 7.88L37.48 7.88L37.48 7.88Q36.85 7.88 35.97 9.17L35.97 9.17L35.97 9.17Q35.10 10.46 35.10 11.19L35.10 11.19L35.10 11.19Q35.17 12.29 35.49 13.38L35.49 13.38L35.49 13.38Q34.96 13.55 34.59 13.55L34.59 13.55L34.59 13.55Q33.40 13.55 33.40 12.22L33.40 12.22L33.40 12.22Q33.40 11.66 33.56 10.35L33.56 10.35L33.56 10.35Q33.71 9.03 33.71 8.69L33.71 8.69L33.71 8.69Q33.71 7.99 33.08 7.99L33.08 7.99L33.08 7.99Q32.65 7.99 32.09 8.64L32.09 8.64L32.09 8.64Q31.53 9.28 31.14 10.06L31.14 10.06L31.14 10.06Q30.76 10.84 30.73 11.30L30.73 11.30L30.73 11.30Q30.80 12.50 31.01 13.47L31.01 13.47L31.01 13.47Q30.56 13.64 30.08 13.64L30.08 13.64L30.08 13.64Q29.60 13.64 29.29 13.41L29.29 13.41L29.29 13.41Q28.99 13.17 28.99 12.76L28.99 12.76L28.99 12.76Q28.99 12.35 29.12 11.28L29.12 11.28L29.12 11.28Q29.25 10.21 29.25 9.15L29.25 9.15L29.25 9.15Q29.25 8.09 28.92 6.72L28.92 6.72L28.92 6.72Q29.37 6.55 29.88 6.55L29.88 6.55L29.88 6.55Q30.38 6.55 30.69 6.85L30.69 6.85L30.69 6.85Q31.01 7.14 31.01 7.63L31.01 7.63L31.01 7.63Q31.01 7.88 30.91 8.86L30.91 8.86L30.91 8.86Q31.43 7.94 32.23 7.26L32.23 7.26L32.23 7.26Q33.03 6.58 33.82 6.58L33.82 6.58L33.82 6.58Q35.24 6.58 35.24 8.09L35.24 8.09L35.24 8.09Q35.24 8.47 35.20 8.93L35.20 8.93L35.20 8.93Q35.71 7.95 36.53 7.21L36.53 7.21L36.53 7.21Q37.35 6.47 38.16 6.47L38.16 6.47L38.16 6.47Q39.58 6.47 39.58 7.98ZM41.41 12.21L41.41 12.21L41.55 9.30L41.55 9.30Q41.55 7.94 41.16 6.72L41.16 6.72L41.16 6.72Q41.55 6.55 42.13 6.55L42.13 6.55L42.13 6.55Q43.25 6.55 43.25 7.80L43.25 7.80L43.25 7.80Q43.25 8.50 43.09 9.77L43.09 9.77L43.09 9.77Q42.94 11.03 42.94 11.61L42.94 11.61L42.94 11.61Q42.94 12.31 43.57 12.31L43.57 12.31L43.57 12.31Q43.95 12.31 44.46 11.67L44.46 11.67L44.46 11.67Q44.97 11.03 45.34 10.24L45.34 10.24L45.34 10.24Q45.71 9.45 45.78 8.95L45.78 8.95L45.78 8.95Q45.70 7.41 45.54 6.72L45.54 6.72L45.54 6.72Q45.99 6.55 46.46 6.55L46.46 6.55L46.46 6.55Q46.93 6.55 47.24 6.85L47.24 6.85L47.24 6.85Q47.56 7.14 47.56 7.57L47.56 7.57L47.56 7.57Q47.56 8.01 47.43 9.02L47.43 9.02L47.43 9.02Q47.31 10.02 47.31 11.12L47.31 11.12L47.31 11.12Q47.31 12.22 47.56 13.47L47.56 13.47L47.56 13.47Q47.01 13.64 46.58 13.64L46.58 13.64L46.58 13.64Q45.71 13.64 45.71 12.49L45.71 12.49L45.71 12.49Q45.71 11.98 45.82 11.09L45.82 11.09L45.82 11.09Q45.26 12.28 44.46 13.00L44.46 13.00L44.46 13.00Q43.65 13.72 42.83 13.72L42.83 13.72L42.83 13.72Q41.41 13.72 41.41 12.21ZM55.51 7.98L55.51 7.98L55.37 11.06L55.37 11.06Q55.37 12.33 55.76 13.55L55.76 13.55L55.76 13.55Q55.37 13.72 54.87 13.72L54.87 13.72L54.87 13.72Q53.68 13.72 53.68 12.39L53.68 12.39L53.68 12.39Q53.68 11.79 53.83 10.37L53.83 10.37L53.83 10.37Q53.98 8.95 53.98 8.58L53.98 8.58L53.98 8.58Q53.98 7.88 53.35 7.88L53.35 7.88L53.35 7.88Q52.89 7.88 52.31 8.55L52.31 8.55L52.31 8.55Q51.73 9.21 51.32 10.03L51.32 10.03L51.32 10.03Q50.90 10.85 50.83 11.38L50.83 11.38L50.83 11.38Q50.89 12.47 51.11 13.47L51.11 13.47L51.11 13.47Q50.67 13.64 50.18 13.64L50.18 13.64L50.18 13.64Q49.70 13.64 49.40 13.41L49.40 13.41L49.40 13.41Q49.10 13.17 49.10 12.76L49.10 12.76L49.10 12.76Q49.10 12.35 49.22 11.28L49.22 11.28L49.22 11.28Q49.35 10.21 49.35 9.15L49.35 9.15L49.35 9.15Q49.35 8.09 49.03 6.72L49.03 6.72L49.03 6.72Q49.48 6.55 49.98 6.55L49.98 6.55L49.98 6.55Q50.48 6.55 50.80 6.85L50.80 6.85L50.80 6.85Q51.11 7.14 51.11 7.57L51.11 7.57L51.11 7.57Q51.11 8.01 51.00 8.96L51.00 8.96L51.00 8.96Q51.53 7.97 52.39 7.22L52.39 7.22L52.39 7.22Q53.24 6.47 54.10 6.47L54.10 6.47L54.10 6.47Q55.51 6.47 55.51 7.98ZM57.25 6.68L57.25 6.68L57.25 6.68Q57.69 6.55 58.15 6.55L58.15 6.55L58.15 6.55Q58.60 6.55 58.93 6.83L58.93 6.83L58.93 6.83Q59.25 7.11 59.25 7.55L59.25 7.55L59.25 7.55Q59.25 7.99 59.10 9.08L59.10 9.08L59.10 9.08Q58.95 10.16 58.95 10.77L58.95 10.77L58.95 10.77Q58.95 12.33 59.25 13.47L59.25 13.47L59.25 13.47Q58.81 13.64 58.31 13.64L58.31 13.64L58.31 13.64Q57.81 13.64 57.51 13.41L57.51 13.41L57.51 13.41Q57.22 13.17 57.22 12.73L57.22 12.73L57.22 12.73Q57.22 12.29 57.39 11.28L57.39 11.28L57.39 11.28Q57.55 10.28 57.55 9.62L57.55 9.62L57.55 9.62Q57.55 7.87 57.25 6.68ZM57.43 3.51L57.43 3.51L57.43 3.51Q57.92 3.29 58.39 3.29L58.39 3.29L58.39 3.29Q58.87 3.29 59.10 3.54L59.10 3.54L59.10 3.54Q59.33 3.78 59.33 4.26L59.33 4.26L59.33 4.26Q59.33 4.73 59.02 5.10L59.02 5.10L59.02 5.10Q58.70 5.46 58.20 5.46L58.20 5.46L58.20 5.46Q57.16 5.46 57.16 4.38L57.16 4.38L57.16 4.38Q57.16 3.91 57.43 3.51ZM67.20 7.00L67.20 7.00L67.20 7.00Q66.88 9.79 66.88 10.96L66.88 10.96L66.88 10.96Q66.88 13.92 67.26 16.97L67.26 16.97L67.26 16.97Q66.84 17.14 66.36 17.14L66.36 17.14L66.36 17.14Q65.88 17.14 65.55 16.81L65.55 16.81L65.55 16.81Q65.21 16.49 65.21 16.00L65.21 16.00L65.21 16.00Q65.21 15.16 65.32 13.33L65.32 13.33L65.32 13.33Q65.42 11.49 65.45 10.86L65.45 10.86L65.45 10.86Q64.51 12.94 63.55 13.48L63.55 13.48L63.55 13.48Q63.13 13.72 62.65 13.72L62.65 13.72L62.65 13.72Q61.59 13.72 61.02 12.94L61.02 12.94L61.02 12.94Q60.45 12.15 60.45 10.98L60.45 10.98L60.45 10.98Q60.45 9.16 61.46 7.81L61.46 7.81L61.46 7.81Q62.47 6.47 64.16 6.47L64.16 6.47L64.16 6.47Q65.86 6.47 67.20 7.00ZM65.52 7.88L65.52 7.88L65.52 7.88Q64.78 7.66 64.26 7.66L64.26 7.66L64.26 7.66Q63.21 7.66 62.66 8.11L62.66 8.11L62.66 8.11Q62.17 9.23 62.17 10.67L62.17 10.67L62.17 10.67Q62.17 11.31 62.36 11.89L62.36 11.89L62.36 11.89Q62.54 12.47 62.96 12.47L62.96 12.47L62.96 12.47Q63.45 12.47 64.25 11.03L64.25 11.03L64.25 11.03Q65.04 9.59 65.52 7.88ZM68.67 12.21L68.67 12.21L68.81 9.30L68.81 9.30Q68.81 7.94 68.42 6.72L68.42 6.72L68.42 6.72Q68.81 6.55 69.38 6.55L69.38 6.55L69.38 6.55Q70.50 6.55 70.50 7.80L70.50 7.80L70.50 7.80Q70.50 8.50 70.35 9.77L70.35 9.77L70.35 9.77Q70.20 11.03 70.20 11.61L70.20 11.61L70.20 11.61Q70.20 12.31 70.83 12.31L70.83 12.31L70.83 12.31Q71.20 12.31 71.72 11.67L71.72 11.67L71.72 11.67Q72.23 11.03 72.60 10.24L72.60 10.24L72.60 10.24Q72.97 9.45 73.04 8.95L73.04 8.95L73.04 8.95Q72.95 7.41 72.80 6.72L72.80 6.72L72.80 6.72Q73.25 6.55 73.72 6.55L73.72 6.55L73.72 6.55Q74.19 6.55 74.50 6.85L74.50 6.85L74.50 6.85Q74.82 7.14 74.82 7.57L74.82 7.57L74.82 7.57Q74.82 8.01 74.69 9.02L74.69 9.02L74.69 9.02Q74.56 10.02 74.56 11.12L74.56 11.12L74.56 11.12Q74.56 12.22 74.82 13.47L74.82 13.47L74.82 13.47Q74.27 13.64 73.84 13.64L73.84 13.64L73.84 13.64Q72.97 13.64 72.97 12.49L72.97 12.49L72.97 12.49Q72.97 11.98 73.08 11.09L73.08 11.09L73.08 11.09Q72.52 12.28 71.72 13.00L71.72 13.00L71.72 13.00Q70.91 13.72 70.08 13.72L70.08 13.72L70.08 13.72Q68.67 13.72 68.67 12.21ZM77.50 10.46L77.50 10.46L77.50 10.46Q77.50 11.47 77.83 12.05L77.83 12.05L77.83 12.05Q78.15 12.63 78.90 12.63L78.90 12.63L78.90 12.63Q79.66 12.63 80.09 12.12L80.09 12.12L80.09 12.12Q80.51 11.61 80.51 10.88L80.51 10.88L80.51 10.88Q80.99 10.88 81.34 11.12L81.34 11.12L81.34 11.12Q81.69 11.35 81.69 11.77L81.69 11.77L81.69 11.77Q81.69 12.64 80.77 13.22L80.77 13.22L80.77 13.22Q79.84 13.80 78.82 13.80L78.82 13.80L78.82 13.80Q77.22 13.80 76.51 12.94L76.51 12.94L76.51 12.94Q75.80 12.08 75.80 10.39L75.80 10.39L75.80 10.39Q75.80 8.69 76.75 7.54L76.75 7.54L76.75 7.54Q77.71 6.38 79.31 6.38L79.31 6.38L79.31 6.38Q80.40 6.38 81.07 6.88L81.07 6.88L81.07 6.88Q81.73 7.38 81.73 8.42L81.73 8.42L81.73 8.42Q81.73 9.46 80.79 9.99L80.79 9.99L80.79 9.99Q79.84 10.51 78.48 10.51L78.48 10.51L78.48 10.51Q78.01 10.51 77.50 10.46ZM77.52 9.35L77.52 9.35L77.52 9.35Q77.94 9.44 78.40 9.44L78.40 9.44L78.40 9.44Q79.41 9.44 80.09 9.06L80.09 9.06L80.09 9.06Q80.18 8.72 80.18 8.53L80.18 8.53L80.18 8.53Q80.18 8.04 79.83 7.78L79.83 7.78L79.83 7.78Q79.48 7.53 78.87 7.53L78.87 7.53L78.87 7.53Q78.26 7.53 77.77 7.92L77.77 7.92L77.77 7.92Q77.52 8.65 77.52 9.35Z"></path></g><defs data-v-423bf9ae=""><linearGradient data-v-423bf9ae="" gradientTransform="rotate(25)" id="404724e1-1945-41a9-8a84-3ff01db4c6f2" x1="0%" y1="0%" x2="100%" y2="0%"><stop data-v-423bf9ae="" offset="0%" style="stop-color: rgb(40, 139, 88); stop-opacity: 1;"></stop><stop data-v-423bf9ae="" offset="100%" style="stop-color: rgb(21, 34, 241); stop-opacity: 1;"></stop></linearGradient></defs><g data-v-423bf9ae="" id="d5d275ad-cc9c-4120-94b6-5ec17b0647d1" transform="matrix(1.000001072883606,0,0,1.000001072883606,126.9999008178711,-4.000102996826172)" stroke="none" fill="url(#404724e1-1945-41a9-8a84-3ff01db4c6f2)"><path d="M6.651 87.793L5 95l6.148-1.434 12.586-2.577L9.011 76.266zM10.748 71.913l48.591-48.59L76.677 40.66l-48.59 48.592zM62.382 20.276l2.756-2.757 17.34 17.336-2.756 2.757zM92.954 14.455l-7.41-7.41A6.951 6.951 0 0 0 80.582 5a6.97 6.97 0 0 0-4.963 2.045l-7.432 7.432 17.336 17.336 7.432-7.432A6.97 6.97 0 0 0 95 19.418a6.96 6.96 0 0 0-2.046-4.963z"></path></g><!----></svg>